HIERARCHY
ROOT hip
{
  OFFSET 51.272 85.1633 45.9497
  CHANNELS 6 Xposition Yposition Zposition Zrotation Xrotation Yrotation
  JOINT abdomen
  {
    OFFSET 0 20.6881 -0.73152
    CHANNELS 3 Zrotation Xrotation Yrotation
    JOINT chest
    {
      OFFSET 0 11.7043 -0.48768
      CHANNELS 3 Zrotation Xrotation Yrotation
      JOINT neck
      {
        OFFSET 0 22.1894 -2.19456
        CHANNELS 3 Zrotation Xrotation Yrotation
        JOINT head
        {
          OFFSET -0.24384 7.07133 1.2192
          CHANNELS 3 Zrotation Xrotation Yrotation
          JOINT leftEye
          {
            OFFSET 4.14528 8.04674 8.04672
            CHANNELS 3 Zrotation Xrotation Yrotation
            End Site
            {
              OFFSET 1 0 0
            }
          }
          JOINT rightEye
          {
            OFFSET -3.6576 8.04674 8.04672
            CHANNELS 3 Zrotation Xrotation Yrotation
            End Site
            {
              OFFSET 1 0 0
            }
          }
        }
      }
      JOINT rCollar
      {
        OFFSET -2.68224 19.2634 -4.8768
        CHANNELS 3 Zrotation Xrotation Yrotation
        JOINT rShldr
        {
          OFFSET -8.77824 -1.95073 1.46304
          CHANNELS 3 Zrotation Xrotation Yrotation
          JOINT rForeArm
          {
            OFFSET -28.1742 -1.7115 0.48768
            CHANNELS 3 Zrotation Xrotation Yrotation
            JOINT rHand
            {
              OFFSET -22.5879 0.773209 7.07136
              CHANNELS 3 Zrotation Xrotation Yrotation
              JOINT rThumb1
              {
                OFFSET -1.2192 -0.487915 3.41376
                CHANNELS 3 Zrotation Xrotation Yrotation
                JOINT rThumb2
                {
                  OFFSET -3.37035 -0.52449 3.41376
                  CHANNELS 3 Zrotation Xrotation Yrotation
                  End Site
                  {
                    OFFSET -1.78271 -1.18214 1.43049
                  }
                }
              }
              JOINT rIndex1
              {
                OFFSET -7.75947 0.938293 5.60832
                CHANNELS 3 Zrotation Xrotation Yrotation
                JOINT rIndex2
                {
                  OFFSET -2.54057 -0.884171 1.56538
                  CHANNELS 3 Zrotation Xrotation Yrotation
                  End Site
                  {
                    OFFSET -1.62519 -0.234802 1.16502
                  }
                }
              }
              JOINT rMid1
              {
                OFFSET -8.24714 1.18213 3.41376
                CHANNELS 3 Zrotation Xrotation Yrotation
                JOINT rMid2
                {
                  OFFSET -3.10165 -0.590103 1.0647
                  CHANNELS 3 Zrotation Xrotation Yrotation
                  End Site
                  {
                    OFFSET -2.48547 -0.328903 0.83742
                  }
                }
              }
              JOINT rRing1
              {
                OFFSET -8.82822 0.546677 1.51678
                CHANNELS 3 Zrotation Xrotation Yrotation
                JOINT rRing2
                {
                  OFFSET -2.60934 -0.819778 -0.0198488
                  CHANNELS 3 Zrotation Xrotation Yrotation
                  End Site
                  {
                    OFFSET -2.33842 -0.294052 0.168128
                  }
                }
              }
              JOINT rPinky1
              {
                OFFSET -8.27202 -0.0477905 -0.4584
                CHANNELS 3 Zrotation Xrotation Yrotation
                JOINT rPinky2
                {
                  OFFSET -1.82734 -0.647385 -0.700984
                  CHANNELS 3 Zrotation Xrotation Yrotation
                  End Site
                  {
                    OFFSET -1.69225 -0.51767 -0.607171
                  }
                }
              }
            }
          }
        }
      }
      JOINT lCollar
      {
        OFFSET 2.68224 19.2634 -4.8768
        CHANNELS 3 Zrotation Xrotation Yrotation
        JOINT lShldr
        {
          OFFSET 8.77824 -1.95073 1.46304
          CHANNELS 3 Zrotation Xrotation Yrotation
          JOINT lForeArm
          {
            OFFSET 28.1742 -1.7115 0.48768
            CHANNELS 3 Zrotation Xrotation Yrotation
            JOINT lHand
            {
              OFFSET 22.5879 0.773209 7.07136
              CHANNELS 3 Zrotation Xrotation Yrotation
              JOINT lThumb1
              {
                OFFSET 1.2192 -0.487915 3.41376
                CHANNELS 3 Zrotation Xrotation Yrotation
                JOINT lThumb2
                {
                  OFFSET 3.37035 -0.52449 3.41376
                  CHANNELS 3 Zrotation Xrotation Yrotation
                  End Site
                  {
                    OFFSET 1.78271 -1.18214 1.43049
                  }
                }
              }
              JOINT lIndex1
              {
                OFFSET 7.75947 0.938293 5.60832
                CHANNELS 3 Zrotation Xrotation Yrotation
                JOINT lIndex2
                {
                  OFFSET 2.54057 -0.884171 1.56538
                  CHANNELS 3 Zrotation Xrotation Yrotation
                  End Site
                  {
                    OFFSET 1.62519 -0.234802 1.16502
                  }
                }
              }
              JOINT lMid1
              {
                OFFSET 8.24714 1.18213 3.41376
                CHANNELS 3 Zrotation Xrotation Yrotation
                JOINT lMid2
                {
                  OFFSET 3.10165 -0.590103 1.0647
                  CHANNELS 3 Zrotation Xrotation Yrotation
                  End Site
                  {
                    OFFSET 2.48547 -0.328903 0.83742
                  }
                }
              }
              JOINT lRing1
              {
                OFFSET 8.82822 0.546677 1.51678
                CHANNELS 3 Zrotation Xrotation Yrotation
                JOINT lRing2
                {
                  OFFSET 2.60934 -0.819778 -0.0198488
                  CHANNELS 3 Zrotation Xrotation Yrotation
                  End Site
                  {
                    OFFSET 2.33842 -0.294052 0.168128
                  }
                }
              }
              JOINT lPinky1
              {
                OFFSET 8.27202 -0.0477905 -0.4584
                CHANNELS 3 Zrotation Xrotation Yrotation
                JOINT lPinky2
                {
                  OFFSET 1.82734 -0.647385 -0.700984
                  CHANNELS 3 Zrotation Xrotation Yrotation
                  End Site
                  {
                    OFFSET 1.69225 -0.51767 -0.607171
                  }
                }
              }
            }
          }
        }
      }
    }
  }
  JOINT rButtock
  {
    OFFSET -8.77824 4.35084 1.2192
    CHANNELS 3 Zrotation Xrotation Yrotation
    JOINT rThigh
    {
      OFFSET 0 -1.70687 -2.19456
      CHANNELS 3 Zrotation Xrotation Yrotation
      JOINT rShin
      {
        OFFSET 0 -36.8199 0.73152
        CHANNELS 3 Zrotation Xrotation Yrotation
        JOINT rFoot
        {
          OFFSET 0.73152 -45.1104 -5.12064
          CHANNELS 3 Zrotation Xrotation Yrotation
          End Site
          {
            OFFSET -1.1221 -3.69964 12.103
          }
        }
      }
    }
  }
  JOINT lButtock
  {
    OFFSET 8.77824 4.35084 1.2192
    CHANNELS 3 Zrotation Xrotation Yrotation
    JOINT lThigh
    {
      OFFSET 0 -1.70687 -2.19456
      CHANNELS 3 Zrotation Xrotation Yrotation
      JOINT lShin
      {
        OFFSET 0 -36.8199 0.73152
        CHANNELS 3 Zrotation Xrotation Yrotation
        JOINT lFoot
        {
          OFFSET -0.73152 -45.1104 -5.12064
          CHANNELS 3 Zrotation Xrotation Yrotation
          End Site
          {
            OFFSET 1.1221 -3.69964 12.103
          }
        }
      }
    }
  }
}
MOTION
Frames:	4
Frame Time:	0.00833333
45.6073 85.5269 138.901 -1.77868 0.00595663 0.0336573 2.34099 -0.00222384 0.0637207 0.64659 0.00595041 0.111937 -6.49527e-014 7.95139e-016 5.2181e-016 -1.95175e-013 9.54166e-015 1.53592e-015 -0 0 0 -0 0 0 -3.22047e-014 1.31035e-016 3.47873e-016 -6.81305e-013 2.14315e-015 4.17448e-015 -1.17578e-011 3.59502e-012 2.16278e-013 -1.34382e-010 -3.03276e-012 8.07861e-013 -3.17014e-010 1.22694e-012 2.26137e-012 -5.47471e-010 2.11825e-012 3.90016e-012 -3.17009e-010 1.22849e-012 2.24547e-012 7.73091 5.47488 0.417314 -3.17013e-010 1.2273e-012 2.26137e-012 2.90554 0.965183 0.102902 -3.17002e-010 1.2273e-012 2.25104e-012 10.2786 0.731801 0.0259123 -3.17021e-010 1.22809e-012 2.25501e-012 2.22167 -0.733487 -0.20892 -3.2303e-014 1.32005e-016 1.49089e-016 -6.83555e-013 2.4289e-015 2.18663e-015 -1.17278e-011 -3.42407e-012 1.74931e-013 -1.34373e-010 3.99806e-012 8.46028e-013 -3.16934e-010 1.24829e-012 2.24865e-012 -5.47317e-010 2.16278e-012 3.8922e-012 -3.16937e-010 1.24916e-012 2.24865e-012 -7.73091 5.47488 -0.417314 -3.16934e-010 1.24867e-012 2.24865e-012 -2.90554 0.965183 -0.102902 -3.16942e-010 1.24877e-012 2.25104e-012 -10.2786 0.731801 -0.0259123 -3.16929e-010 1.24916e-012 2.24547e-012 -2.22167 -0.733487 0.20892 -2.03217e-016 0 -3.88251e-019 2.21587 -8.02969 -0.231386 0.00606925 8.9736 0.152049 -0.478091 -0.95142 0.034907 2.03217e-016 0 3.88251e-019 1.35244 -1.92788 -0.00536432 0.00846378 -2.07867 0.0694353 0.423463 3.99898 -0.127231 
47.1945 84.7154 127.61 -1.70615 0.306019 -47.5358 2.75364 0.930746 1.13384 0.556861 -2.8599 0.473052 -2.04332 3.14993 -0.672965 3.28768 -7.53197 -0.379602 -0 0 0 -0 0 0 -7.9827e-016 -4.49912e-014 8.4296e-014 22.5339 13.2447 -3.82737 -5.5682 -2.87268 8.29272 0.0360629 4.2145 0.586535 -8.44536e-010 7.19208e-010 -1.702e-010 -1.4624e-009 1.23632e-009 -2.85469e-010 -8.44532e-010 7.19212e-010 -1.70216e-010 7.73091 5.47488 0.417314 -8.44537e-010 7.19211e-010 -1.702e-010 2.90554 0.965183 0.102902 -8.44524e-010 7.19212e-010 -1.70208e-010 10.2786 0.731801 0.0259123 -8.44544e-010 7.19213e-010 -1.70204e-010 2.22167 -0.733487 -0.20892 -8.80582e-016 -4.49913e-014 8.40836e-014 -22.6961 10.4882 4.04382 5.4019 -2.7471 -8.09526 -0.0143335 2.65733 -0.372016 1.2548e-010 1.90718e-010 -9.21093e-011 2.17426e-010 3.26724e-010 -1.63307e-010 1.25478e-010 1.90717e-010 -9.21066e-011 -7.73091 5.47488 -0.417314 1.25479e-010 1.90714e-010 -9.21111e-011 -2.90554 0.965183 -0.102902 1.25471e-010 1.90716e-010 -9.21071e-011 -10.2786 0.731801 -0.0259123 1.25485e-010 1.90716e-010 -9.21105e-011 -2.22167 -0.733487 0.20892 -2.03217e-016 0 -3.88251e-019 4.47258 -7.89488 5.80117 0.0129547 11.7559 0.202206 -1.3434 -4.27097 -9.19698 2.03217e-016 0 3.88251e-019 0.235466 -3.25373 -6.8043 -0.0147046 3.35822 -0.122888 1.26406 -2.01001 6.17469 
47.1719 84.7143 127.607 -1.40132 -0.125604 -97.8155 3.14964 1.91759 2.26003 0.507556 -5.89233 0.856998 -4.1265 6.48083 -1.38969 6.65321 -15.497 -0.799559 -0 0 0 -0 0 0 3.27149e-014 -9.48613e-014 1.76046e-013 48.4825 27.0444 -8.60941 -10.5555 -5.70501 17.1188 -0.0206176 8.668 1.21718 -1.42525e-009 1.50757e-009 -3.58685e-010 -2.46958e-009 2.59156e-009 -6.01718e-010 -1.42525e-009 1.50758e-009 -3.58702e-010 7.73091 5.47488 0.417314 -1.42526e-009 1.50758e-009 -3.58685e-010 2.90554 0.965183 0.102902 -1.42524e-009 1.50758e-009 -3.58692e-010 10.2786 0.731801 0.0259123 -1.42526e-009 1.50758e-009 -3.58687e-010 2.22167 -0.733487 -0.20892 3.26502e-014 -9.48627e-014 1.75819e-013 -48.4066 21.3937 8.79103 10.2767 -5.46808 -16.7116 0.00822608 5.47513 -0.769222 6.11293e-010 4.04572e-010 -1.90982e-010 1.05723e-009 6.93157e-010 -3.38735e-010 6.11291e-010 4.04571e-010 -1.90977e-010 -7.73091 5.47488 -0.417314 6.1129e-010 4.04565e-010 -1.90986e-010 -2.90554 0.965183 -0.102902 6.11283e-010 4.04569e-010 -1.9098e-010 -10.2786 0.731801 -0.0259123 6.11298e-010 4.04567e-010 -1.90981e-010 -2.22167 -0.733487 0.20892 -2.03217e-016 0 -3.88251e-019 6.82615 -7.65769 12.1761 0.0147124 14.6974 0.256921 -3.41019 -7.47073 -19.0712 2.03217e-016 0 3.88251e-019 -1.287 -4.56012 -14.0121 0.000821411 9.10622 -0.329967 3.59074 -8.179 12.964 
47.1425 84.7141 127.604 -1.74681 -1.07178 -142.664 3.47435 2.79266 3.27752 0.486886 -8.59002 1.20705 -5.90543 9.44453 -2.04356 9.54249 -22.5918 -1.22283 -0 0 0 -0 0 0 6.20147e-014 -1.35236e-013 2.52192e-013 74.1473 38.9197 -14.4259 -14.2774 -7.89741 25.101 -0.1561 12.6381 1.79844 -1.89958e-009 2.15517e-009 -5.15121e-010 -3.29226e-009 3.70472e-009 -8.64208e-010 -1.89958e-009 2.15518e-009 -5.15138e-010 7.73091 5.47488 0.417314 -1.89958e-009 2.15518e-009 -5.15122e-010 2.90554 0.965183 0.102902 -1.89957e-009 2.15518e-009 -5.15126e-010 10.2786 0.731801 0.0259123 -1.89959e-009 2.15518e-009 -5.15121e-010 2.22167 -0.733487 -0.20892 6.19643e-014 -1.35238e-013 2.51953e-013 -73.1066 30.785 13.9214 13.9374 -7.58463 -24.4858 0.0613751 7.97065 -1.12572 1.01031e-009 5.69656e-010 -2.80825e-010 1.74691e-009 9.75846e-010 -4.97704e-010 1.01031e-009 5.69654e-010 -2.80817e-010 -7.73091 5.47488 -0.417314 1.0103e-009 5.69646e-010 -2.80831e-010 -2.90554 0.965183 -0.102902 1.0103e-009 5.69651e-010 -2.80823e-010 -10.2786 0.731801 -0.0259123 1.01031e-009 5.69648e-010 -2.80823e-010 -2.22167 -0.733487 0.20892 -2.03217e-016 0 -3.88251e-019 8.89033 -7.37691 17.8489 0.0113505 17.3205 0.307459 -6.17981 -9.80408 -28.028 2.03217e-016 0 3.88251e-019 -2.92098 -5.5997 -20.4712 0.0509426 14.2315 -0.522858 6.9182 -13.3014 19.304 
